HIERARCHY
ROOT Hips
{
	OFFSET 44.605000 4.658186 84.108704
	CHANNELS 6 Xposition Yposition Zposition Xrotation Yrotation Zrotation
	JOINT spine
	{
		OFFSET 0.000000 -0.359108 6.244797
		CHANNELS 3 Xrotation Yrotation Zrotation
		JOINT spine1
		{
			OFFSET 0.000000 -0.000001 9.069412
			CHANNELS 3 Xrotation Yrotation Zrotation
			JOINT spine2
			{
				OFFSET 0.000000 -0.000001 8.690140
				CHANNELS 3 Xrotation Yrotation Zrotation
				JOINT Neck
				{
					OFFSET 0.000000 -1.063724 22.311203
					CHANNELS 3 Xrotation Yrotation Zrotation
					JOINT Head
					{
						OFFSET 0.000000 -0.000001 6.740814
						CHANNELS 3 Xrotation Yrotation Zrotation
						End Site
						{
							OFFSET 0.000000 5.380967 16.316498
						}
					}
				}
				JOINT RightShoulder
				{
					OFFSET -3.659161 0.509512 9.384682
					CHANNELS 3 Xrotation Yrotation Zrotation
					JOINT RightArm
					{
						OFFSET 0.000000 -0.000002 12.308907
						CHANNELS 3 Xrotation Yrotation Zrotation
						JOINT RightArmRoll
						{
							OFFSET 0.000000 -0.000001 6.213745
							CHANNELS 3 Xrotation Yrotation Zrotation
							JOINT RightForeArm
							{
								OFFSET 0.000000 -0.000003 18.098495
								CHANNELS 3 Xrotation Yrotation Zrotation
								JOINT RightForeArmRoll
								{
									OFFSET 0.000000 -0.000001 6.972794
									CHANNELS 3 Xrotation Yrotation Zrotation
									JOINT RightHand
									{
										OFFSET 0.000000 -0.000002 13.992905
										CHANNELS 3 Xrotation Yrotation Zrotation
										End Site
										{
											OFFSET 0.000000 0.000000 0.100006
										}
									}
								}
							}
						}
					}
				}
				JOINT LeftShoulder
				{
					OFFSET 3.659161 0.509512 9.384682
					CHANNELS 3 Xrotation Yrotation Zrotation
					JOINT LeftArm
					{
						OFFSET 0.000000 -0.000002 12.308907
						CHANNELS 3 Xrotation Yrotation Zrotation
						JOINT LeftArmRoll
						{
							OFFSET 0.000000 -0.000001 6.213745
							CHANNELS 3 Xrotation Yrotation Zrotation
							JOINT LeftForeArm
							{
								OFFSET 0.000000 -0.000003 18.098495
								CHANNELS 3 Xrotation Yrotation Zrotation
								JOINT LeftForeArmRoll
								{
									OFFSET 0.000000 -0.000001 6.972794
									CHANNELS 3 Xrotation Yrotation Zrotation
									JOINT LeftHand
									{
										OFFSET 0.000000 -0.000002 13.992905
										CHANNELS 3 Xrotation Yrotation Zrotation
										End Site
										{
											OFFSET 0.000000 0.000000 0.100006
										}
									}
								}
							}
						}
					}
				}
			}
		}
	}
	JOINT RightUpLeg
	{
		OFFSET -5.535160 0.851455 -1.014999
		CHANNELS 3 Xrotation Yrotation Zrotation
		JOINT RightUpLegRoll
		{
			OFFSET 0.000000 -0.000003 16.407501
			CHANNELS 3 Xrotation Yrotation Zrotation
			JOINT RightLeg
			{
				OFFSET 0.000000 0.000003 -20.318100
				CHANNELS 3 Xrotation Yrotation Zrotation
				JOINT RightLegRoll
				{
					OFFSET 0.000000 -0.000003 20.384598
					CHANNELS 3 Xrotation Yrotation Zrotation
					JOINT RightFoot
					{
						OFFSET 0.000000 -0.000003 16.966797
						CHANNELS 3 Xrotation Yrotation Zrotation
						JOINT RightToeBase
						{
							OFFSET 0.000000 -0.000002 14.183395
							CHANNELS 3 Xrotation Yrotation Zrotation
							End Site
							{
								OFFSET 0.006012 0.791744 6.868896
							}
						}
					}
				}
			}
		}
	}
	JOINT LeftUpLeg
	{
		OFFSET 5.535160 0.851455 -1.014999
		CHANNELS 3 Xrotation Yrotation Zrotation
		JOINT LeftUpLegRoll
		{
			OFFSET 0.000000 -0.000003 16.407600
			CHANNELS 3 Xrotation Yrotation Zrotation
			JOINT LeftLeg
			{
				OFFSET 0.000000 -0.000003 20.318100
				CHANNELS 3 Xrotation Yrotation Zrotation
				JOINT LeftLegRoll
				{
					OFFSET 0.000000 -0.000003 20.573097
					CHANNELS 3 Xrotation Yrotation Zrotation
					JOINT LeftFoot
					{
						OFFSET 0.000000 -0.000003 16.778305
						CHANNELS 3 Xrotation Yrotation Zrotation
						JOINT LeftToeBase
						{
							OFFSET 0.000000 -0.000002 14.183395
							CHANNELS 3 Xrotation Yrotation Zrotation
							End Site
							{
								OFFSET -0.026943 0.791745 6.868896
							}
						}
					}
				}
			}
		}
	}
}
MOTION
Frames: 8
Frame Time: 0.041667
42.714806 3.219486 82.610489 6.480408 1.505404 0.607993 -2.000449 0.033227 0.167148 0.001826 0.062256 0.335089 1.646891 0.066265 0.334319 -0.413544 -4.563882 -0.953697 2.294886 1.756111 -0.145588 -8.054336 -63.979967 -9.811739 -24.533454 -110.008345 -17.176001 -0.000001 -0.000006 -0.000002 17.041896 -11.833684 1.225396 0.000001 0.000002 -3.000001 -5.000199 -7.998773 0.000162 -17.138220 58.686099 20.236713 -24.615643 116.847721 14.303723 -0.000010 -0.000002 -0.000002 25.551161 6.081504 -0.732562 -0.000001 -0.000002 2.999999 -5.000254 7.999689 -0.000058 -22.239147 -181.293137 -2.752657 -179.999991 0.000005 -0.955006 141.594384 2.347809 -0.386953 0.000001 -0.000001 1.048770 75.590591 6.448270 2.988793 33.290847 -6.871663 4.043913 -22.806849 168.764617 -1.602411 -0.000006 -0.000005 -1.019251 -42.970680 -2.784324 0.493928 -0.000003 0.000001 -1.101900 72.587781 -6.513177 -2.977319 32.843788 6.110419 -10.048767 
42.680504 3.213405 82.348808 6.533169 1.562820 0.588649 -2.001789 0.024092 0.170720 -0.000836 0.043895 0.342010 1.644230 0.047989 0.341460 -0.401693 -4.630595 -0.951353 2.218817 1.784412 -0.131358 -8.115876 -64.035489 -9.886136 -25.133544 -109.978859 -17.845765 -0.000000 -0.000007 -0.000001 17.018974 -11.891159 1.235684 -0.000001 0.000002 -3.000001 -5.000199 -7.998774 0.000162 -17.137727 58.695265 20.236218 -24.952259 116.841287 14.698699 -0.000011 -0.000001 -0.000000 25.539312 6.123613 -0.740861 0.000000 -0.000001 3.000002 -5.000249 7.999689 -0.000061 -22.623366 -181.444645 -2.777393 -179.999991 0.000005 -0.962000 140.673579 2.410554 -0.339487 0.000003 -0.000001 1.123360 76.277982 6.415330 3.042708 33.471953 -6.845543 4.161256 -23.173975 168.682327 -1.562583 -0.000005 -0.000004 -1.019360 -43.835061 -2.896916 0.425507 -0.000005 0.000001 -1.200919 73.103665 -6.464401 -3.055531 33.038632 6.040139 -10.326755 
42.653198 3.169595 82.061211 6.591261 1.624398 0.567384 -2.003750 0.014542 0.174113 -0.004719 0.024705 0.348564 1.640351 0.028879 0.348243 -0.395146 -4.702759 -0.948700 2.144697 1.816068 -0.115941 -8.177297 -64.100963 -9.960880 -25.758537 -109.946423 -18.542210 -0.000001 -0.000006 -0.000001 17.006406 -11.950213 1.247143 0.000001 0.000002 -3.000000 -5.000200 -7.998774 0.000161 -17.138517 58.699445 20.237191 -25.287874 116.838719 15.094353 -0.000010 -0.000001 -0.000000 25.526224 6.166709 -0.749205 -0.000001 -0.000002 3.000000 -5.000255 7.999690 -0.000059 -23.011464 -181.599799 -2.800736 -179.999991 0.000005 -0.967996 139.768715 2.466243 -0.292114 0.000001 -0.000002 1.199060 76.987427 6.380489 3.098119 33.543626 -6.832048 4.228711 -23.548237 168.596130 -1.515406 -0.000006 -0.000004 -1.018990 -44.688111 -3.015306 0.349228 -0.000002 0.000000 -1.311851 73.688589 -6.409424 -3.145796 33.145767 6.000544 -10.479477 
42.655201 3.165985 81.799599 6.656696 1.691447 0.542918 -2.006988 0.004643 0.177574 -0.011165 0.004812 0.355254 1.633900 0.009067 0.355171 -0.389897 -4.784689 -0.945925 2.070615 1.853340 -0.098949 -8.239670 -64.182277 -10.037546 -26.418152 -109.905148 -19.277712 -0.000000 -0.000007 -0.000001 17.005312 -12.013841 1.260646 0.000001 0.000002 -3.000001 -5.000199 -7.998773 0.000162 -17.140817 58.695545 20.239906 -25.619934 116.839511 15.490652 -0.000010 -0.000002 -0.000000 25.513801 6.212767 -0.758169 -0.000002 -0.000001 2.999999 -5.000260 7.999689 -0.000059 -23.413335 -181.763860 -2.821213 -179.999991 0.000005 -0.973994 138.857104 2.514985 -0.243501 0.000002 -0.000001 1.277670 77.743132 6.344005 3.157253 33.523719 -6.829507 4.254858 -23.936833 168.503936 -1.462515 -0.000005 -0.000003 -1.017891 -45.547192 -3.139701 0.263155 -0.000002 0.000002 -1.435930 74.353098 -6.349608 -3.249416 33.181544 5.987240 -10.529320 
42.630199 3.161178 81.489700 6.728417 1.763101 0.515765 -2.011239 -0.005611 0.181066 -0.019626 -0.015797 0.362001 1.625440 -0.011459 0.362164 -0.387052 -4.874179 -0.943085 1.996982 1.895169 -0.080705 -8.303959 -64.276062 -10.117055 -27.107725 -109.858873 -20.046569 -0.000001 -0.000006 -0.000002 17.013890 -12.080900 1.275817 -0.000001 0.000002 -3.000001 -5.000201 -7.998773 0.000161 -17.144781 58.685504 20.244546 -25.949752 116.843923 15.887814 -0.000010 -0.000002 -0.000002 25.501404 6.260961 -0.767537 -0.000001 -0.000001 3.000001 -5.000252 7.999690 -0.000059 -23.826816 -181.935817 -2.838994 -179.999991 0.000005 -0.981001 137.940971 2.559145 -0.192966 0.000003 -0.000001 1.358860 78.537927 6.306696 3.219979 33.422455 -6.836759 4.244448 -24.337479 168.405773 -1.403149 -0.000004 -0.000004 -1.016210 -46.410357 -3.269093 0.167840 -0.000003 0.000000 -1.571590 75.086612 -6.286779 -3.365650 33.153923 5.997616 -10.487907 
42.579597 3.164477 81.222603 6.805419 1.838494 0.486442 -2.016219 -0.016227 0.184549 -0.029552 -0.037130 0.368724 1.615510 -0.032710 0.369142 -0.387721 -4.968986 -0.940244 1.924254 1.940506 -0.061539 -8.371218 -64.379218 -10.200433 -27.822134 -109.811376 -20.842544 -0.000001 -0.000006 -0.000002 17.030208 -12.149867 1.292128 0.000003 0.000002 -3.000001 -5.000201 -7.998772 0.000162 -17.150444 58.670929 20.251164 -26.279307 116.851259 16.286815 -0.000010 -0.000002 -0.000001 25.488287 6.310462 -0.777080 -0.000000 -0.000002 2.999999 -5.000252 7.999690 -0.000061 -24.249723 -182.112774 -2.855090 -179.999991 0.000005 -0.986998 137.022747 2.598080 -0.141450 0.000002 -0.000002 1.442270 79.364572 6.269392 3.286028 33.250225 -6.852381 4.202204 -24.747934 168.304290 -1.337748 -0.000007 -0.000004 -1.014120 -47.275346 -3.402528 0.063938 -0.000004 0.000001 -1.717230 75.878607 -6.222695 -3.493490 33.070878 6.028463 -10.366740 
42.578499 3.230358 80.897011 6.886640 1.916771 0.455474 -2.021660 -0.027209 0.187985 -0.040398 -0.059199 0.375342 1.604670 -0.054698 0.376025 -0.393013 -5.066902 -0.937475 1.852865 1.988301 -0.041789 -8.442396 -64.488392 -10.288571 -28.558407 -109.764623 -21.661691 -0.000001 -0.000007 -0.000002 17.052351 -12.219517 1.309138 0.000001 0.000002 -3.000001 -5.000200 -7.998773 0.000162 -17.157864 58.653566 20.259854 -26.609922 116.861805 16.687896 -0.000011 -0.000001 -0.000000 25.473805 6.360426 -0.786556 -0.000003 -0.000000 3.000001 -5.000257 7.999687 -0.000059 -24.680206 -182.295536 -2.868931 -179.999991 0.000005 -0.994007 136.104647 2.634813 -0.089413 -0.000001 -0.000002 1.527570 80.215955 6.232748 3.355185 33.017309 -6.874803 4.132804 -25.165938 168.201277 -1.266443 -0.000006 -0.000005 -1.011781 -48.140106 -3.539094 -0.047876 0.000001 0.000001 -1.871280 76.718358 -6.159074 -3.631860 32.940114 6.076173 -10.177210 
42.543598 3.207987 80.638199 6.971052 1.997089 0.423395 -2.027288 -0.038564 0.191339 -0.051612 -0.082014 0.381780 1.593452 -0.077434 0.382735 -0.404039 -5.165692 -0.934860 1.783246 2.037484 -0.021796 -8.518436 -64.600291 -10.382390 -29.309155 -109.723082 -22.495409 -0.000001 -0.000006 -0.000001 17.078480 -12.288510 1.326382 0.000001 0.000002 -3.000000 -5.000201 -7.998773 0.000162 -17.167136 58.635227 20.270746 -26.943998 116.875014 17.092437 -0.000010 -0.000002 -0.000001 25.457105 6.410033 -0.795714 -0.000004 -0.000001 3.000000 -5.000250 7.999690 -0.000059 -25.115956 -182.481290 -2.881668 -179.999991 0.000005 -1.001000 135.189101 2.668676 -0.036724 0.000001 -0.000002 1.614441 81.084686 6.197531 3.427318 32.733852 -6.902406 4.040911 -25.588978 168.098414 -1.189418 -0.000004 -0.000003 -1.009360 -49.002376 -3.677947 -0.166812 -0.000004 0.000001 -2.032149 77.595211 -6.097335 -3.779762 32.769222 6.137012 -9.930672 
